<?xml version="1.0" encoding="utf-8"?>
<!-- Generator: Adobe Illustrator 16.0.0, SVG Export Plug-In . SVG Version: 6.00 Build 0)  -->
<!DOCTYPE svg PUBLIC "-//W3C//DTD SVG 1.1//EN" "http://www.w3.org/Graphics/SVG/1.1/DTD/svg11.dtd">
<svg version="1.1" id="Layer_5" xmlns="http://www.w3.org/2000/svg" xmlns:xlink="http://www.w3.org/1999/xlink" x="0px" y="0px"
	 width="86.955px" height="46.218px" viewBox="0 0 86.955 46.218" enable-background="new 0 0 86.955 46.218" xml:space="preserve">
<path d="M69.319,46.218c-2.603,0-6.157-0.995-9.435-5.26c-2.618-3.407-2.903-7.848-2.655-11.066
	c-3.289,2.387-7.204,4.207-10.77,5.863c-1.414,0.657-2.751,1.278-3.994,1.907c-11.475,5.801-23.162,6.839-32.065,2.846
	c-5.192-2.329-8.726-6.144-9.947-10.744c-1.436-5.401,0.461-13.294,6.862-17.928c4.352-3.151,14.025-6.89,29.905,3.453
	c0.694,0.452,0.891,1.381,0.438,2.076c-0.451,0.695-1.382,0.89-2.075,0.438c-14.378-9.365-22.781-6.236-26.51-3.536
	C3.825,18.066,2.209,24.69,3.353,28.994c0.985,3.709,3.924,6.826,8.275,8.777c7.244,3.248,17.031,2.675,26.656-1.464
	c-0.54-0.046-1.081-0.118-1.626-0.218c-4.127-0.758-7.031-4.269-6.475-7.825c0.479-3.06,3.611-5.993,10.965-5.039
	c2.28,0.295,5.042,0.561,8.262,0.794c-5.54-2.695-9.453-6.168-8.896-11.259C41.445,4.239,51.472-0.679,60.252,0.076
	c7.065,0.607,11.229,4.599,10.865,10.418c-0.043,0.681-0.182,1.407-0.418,2.178c0.657-0.569,1.174-1.008,1.483-1.271
	c2.883-2.439,6.551-2.988,9.813-1.47c3.022,1.408,4.969,4.225,4.959,7.177c-0.006,1.77-0.763,5.081-5.761,7.367
	c-3.415,1.562-7.923,2.574-13.121,2.979c3.874,1.267,7.084,2.491,8.912,3.971c2.23,1.805,3.134,4.405,2.479,7.135
	c-0.852,3.553-4.145,6.61-8.01,7.434C70.863,46.12,70.139,46.218,69.319,46.218z M60.46,28.189
	c-0.422,2.59-0.782,7.576,1.804,10.941c2.449,3.188,5.487,4.585,8.566,3.929c2.73-0.582,5.136-2.768,5.718-5.199
	c0.269-1.12,0.234-2.741-1.449-4.104c-1.965-1.589-6.735-3.084-11.786-4.667C62.369,28.793,61.415,28.494,60.46,28.189z
	 M38.525,26.047c-3.074,0-5.111,0.975-5.378,2.68c-0.27,1.721,1.295,3.904,4.054,4.411c6.515,1.198,12.894-2.38,17.792-5.765
	c-5.88-0.313-10.562-0.699-14.229-1.173C39.97,26.097,39.221,26.047,38.525,26.047z M62.738,24.656c0.007,0,0.015,0,0.021,0
	c7.013,0,13.031-1.01,17.187-2.911c2.579-1.179,4.002-2.83,4.009-4.648c0.006-1.758-1.29-3.545-3.226-4.447
	c-1.043-0.486-3.775-1.358-6.608,1.04c-3,2.54-6.242,5.449-8.844,8.001C64.509,22.64,63.662,23.628,62.738,24.656z M58.41,2.998
	c-6.938,0-14.226,3.792-14.914,10.089c-0.571,5.22,7.151,8.655,15.184,11.363c1.037-1.375,2.633-3.07,4.378-4.786
	c3.903-4.846,4.963-7.712,5.065-9.356c0.378-6.039-6.126-7.07-8.128-7.242C59.471,3.02,58.941,2.998,58.41,2.998z"/>
</svg>
